<svg width="32" height="32" viewBox="0 0 32 32" fill="none" xmlns="http://www.w3.org/2000/svg">
<path d="M30 16C30 8.26801 23.732 2 16 2C8.26801 2 2 8.26801 2 16C2 23.732 8.26801 30 16 30C23.732 30 30 23.732 30 16Z" fill="#222D4B"/>
<path d="M11.364 18.708C11.492 18.82 11.556 18.96 11.556 19.128C11.556 19.24 11.528 19.336 11.472 19.416C11.08 19.96 10.584 20.396 9.984 20.724C9.384 21.052 8.732 21.216 8.028 21.216C7.436 21.216 6.88 21.1 6.36 20.868C5.84 20.628 5.384 20.304 4.992 19.896C4.6 19.48 4.292 19 4.068 18.456C3.844 17.912 3.732 17.332 3.732 16.716C3.732 16.092 3.844 15.512 4.068 14.976C4.292 14.432 4.6 13.956 4.992 13.548C5.384 13.132 5.84 12.808 6.36 12.576C6.88 12.344 7.436 12.228 8.028 12.228C8.628 12.228 9.156 12.324 9.612 12.516C10.076 12.708 10.488 12.976 10.848 13.32C11.008 13.472 11.152 13.64 11.28 13.824C11.408 14.008 11.472 14.208 11.472 14.424C11.472 14.624 11.4 14.8 11.256 14.952C11.112 15.104 10.936 15.18 10.728 15.18C10.512 15.18 10.336 15.104 10.2 14.952C10.064 14.8 9.996 14.628 9.996 14.436C9.996 14.284 10.036 14.152 10.116 14.04C10.156 13.976 10.152 13.924 10.104 13.884C9.848 13.604 9.536 13.408 9.168 13.296C8.808 13.176 8.428 13.116 8.028 13.116C7.38 13.116 6.804 13.276 6.3 13.596C5.796 13.916 5.396 14.348 5.1 14.892C4.812 15.428 4.668 16.036 4.668 16.716C4.668 17.396 4.816 18.004 5.112 18.54C5.408 19.076 5.808 19.5 6.312 19.812C6.824 20.116 7.396 20.268 8.028 20.268C8.604 20.268 9.132 20.14 9.612 19.884C10.092 19.62 10.48 19.264 10.776 18.816C10.864 18.688 10.98 18.624 11.124 18.624C11.22 18.624 11.3 18.652 11.364 18.708ZM14.489 12.336H16.685C17.709 12.336 18.509 12.568 19.085 13.032C19.661 13.488 19.949 14.132 19.949 14.964C19.949 15.572 19.805 16.072 19.517 16.464C19.229 16.848 18.841 17.132 18.353 17.316C17.865 17.5 17.317 17.592 16.709 17.592H15.005C14.933 17.592 14.897 17.628 14.897 17.7V20.232C14.897 20.304 14.933 20.34 15.005 20.34C15.117 20.324 15.225 20.312 15.329 20.304C15.441 20.296 15.549 20.288 15.653 20.28C15.789 20.264 15.905 20.304 16.001 20.4C16.097 20.496 16.145 20.612 16.145 20.748C16.145 20.876 16.097 20.988 16.001 21.084C15.905 21.18 15.789 21.22 15.653 21.204C15.413 21.188 15.205 21.172 15.029 21.156C14.853 21.148 14.685 21.144 14.525 21.144C14.365 21.144 14.201 21.148 14.033 21.156C13.865 21.172 13.669 21.188 13.445 21.204C13.309 21.22 13.189 21.18 13.085 21.084C12.989 20.988 12.941 20.876 12.941 20.748C12.941 20.612 12.989 20.496 13.085 20.4C13.189 20.304 13.309 20.264 13.445 20.28C13.565 20.304 13.701 20.316 13.853 20.316H13.877C13.933 20.316 13.961 20.284 13.961 20.22V13.26C13.961 13.196 13.933 13.164 13.877 13.164C13.805 13.164 13.737 13.168 13.673 13.176C13.609 13.184 13.545 13.196 13.481 13.212C13.337 13.228 13.209 13.188 13.097 13.092C12.993 12.996 12.941 12.876 12.941 12.732C12.941 12.58 12.993 12.456 13.097 12.36C13.209 12.264 13.337 12.224 13.481 12.24C13.641 12.264 13.809 12.288 13.985 12.312C14.161 12.328 14.329 12.336 14.489 12.336ZM14.897 16.572C14.897 16.644 14.933 16.68 15.005 16.68H16.817C17.521 16.68 18.069 16.548 18.461 16.284C18.861 16.012 19.061 15.572 19.061 14.964C19.061 14.524 18.957 14.18 18.749 13.932C18.549 13.676 18.277 13.496 17.933 13.392C17.597 13.288 17.225 13.236 16.817 13.236H15.005C14.933 13.236 14.897 13.272 14.897 13.344V16.572ZM28.0689 14.304C28.0849 14.44 28.0409 14.56 27.9369 14.664C27.8409 14.768 27.7209 14.82 27.5769 14.82C27.4329 14.82 27.3129 14.768 27.2169 14.664C27.1209 14.56 27.0769 14.44 27.0849 14.304L27.1449 13.356C27.1449 13.284 27.1129 13.248 27.0489 13.248H25.1529C25.0809 13.248 25.0449 13.284 25.0449 13.356V20.232C25.0449 20.296 25.0729 20.328 25.1289 20.328C25.2329 20.328 25.3369 20.324 25.4409 20.316C25.5529 20.3 25.6569 20.288 25.7529 20.28C25.8889 20.264 26.0049 20.304 26.1009 20.4C26.1969 20.496 26.2449 20.612 26.2449 20.748C26.2449 20.876 26.1969 20.984 26.1009 21.072C26.0049 21.168 25.8889 21.212 25.7529 21.204C25.5209 21.18 25.3369 21.164 25.2009 21.156C25.0649 21.148 24.9529 21.14 24.8649 21.132C24.7769 21.132 24.6809 21.132 24.5769 21.132C24.4649 21.132 24.3649 21.132 24.2769 21.132C24.1889 21.14 24.0809 21.148 23.9529 21.156C23.8249 21.164 23.6449 21.18 23.4129 21.204C23.2849 21.212 23.1689 21.168 23.0649 21.072C22.9689 20.984 22.9209 20.876 22.9209 20.748C22.9209 20.612 22.9689 20.496 23.0649 20.4C23.1689 20.304 23.2849 20.264 23.4129 20.28C23.5009 20.288 23.5969 20.296 23.7009 20.304C23.8049 20.312 23.9089 20.32 24.0129 20.328H24.0369C24.0929 20.328 24.1209 20.296 24.1209 20.232V13.356C24.1209 13.284 24.0849 13.248 24.0129 13.248H22.1049C22.0409 13.248 22.0089 13.284 22.0089 13.356L22.0689 14.304C22.0849 14.44 22.0409 14.56 21.9369 14.664C21.8409 14.768 21.7209 14.82 21.5769 14.82C21.4329 14.82 21.3129 14.768 21.2169 14.664C21.1209 14.56 21.0769 14.44 21.0849 14.304C21.1009 14.12 21.1169 13.92 21.1329 13.704C21.1489 13.488 21.1609 13.272 21.1689 13.056C21.1849 12.848 21.2609 12.676 21.3969 12.54C21.5409 12.404 21.7129 12.336 21.9129 12.336H27.2529C27.4529 12.336 27.6209 12.408 27.7569 12.552C27.9009 12.688 27.9769 12.856 27.9849 13.056C28.0009 13.272 28.0169 13.488 28.0329 13.704C28.0489 13.92 28.0609 14.12 28.0689 14.304Z" fill="white"/>
</svg>
